<?xml version="1.0" encoding="UTF-8"?>
<svg id="Layer_1" data-name="Layer 1" xmlns="http://www.w3.org/2000/svg" viewBox="0 0 298 353.85974">
  <defs>
    <style>
      .cls-1 {
        fill: #fff;
      }

      .cls-2 {
        fill: #2a7de1;
      }

      .cls-3 {
        fill: #0033a1;
      }
    </style>
  </defs>
  <polygon class="cls-1" points="177.43601 81.42904 252.08479 184.75284 127.90592 274.87226 51 154.716 177.43601 81.42904"/>
  <polygon class="cls-3" points="168.19701 136.32001 181.95599 55.782 29.202 156.633 81.719 155.81 153.203 105.713 168.19701 136.32001"/>
  <polygon class="cls-2" points="271.51001 191.418 164.52901 154.71201 181.95399 55.777 271.51001 191.418"/>
  <polyline class="cls-3" points="131.22301 229.511 139.675 241.69099 216.405 187.18401 203.42 168.05701 159.15199 198.91 164.52699 154.716 271.508 191.416 125.787 294.202"/>
  <polygon class="cls-2" points="29.2 156.634 81.723 155.811 94.075 176.677 143.27499 143.23801 125.788 293.01199 29.2 156.634"/>
  <polygon class="cls-3" points="94.075 176.677 137.47099 193.298 143.27499 143.239 94.075 176.677"/>
</svg>